<svg width="19" height="19" viewBox="0 0 19 19" fill="none" xmlns="http://www.w3.org/2000/svg">
<path d="M9.64969 2.04025C12.0694 2.04025 12.356 2.04931 13.3119 2.0929C13.8866 2.09994 14.4559 2.20547 14.995 2.40492C15.3859 2.55568 15.7409 2.78663 16.0372 3.0829C16.3335 3.37917 16.5644 3.7342 16.7152 4.12512C16.9146 4.66419 17.0202 5.23347 17.0272 5.80821C17.0704 6.76411 17.0799 7.05067 17.0799 9.47043C17.0799 11.8902 17.0708 12.1767 17.0272 13.1327C17.0202 13.7074 16.9146 14.2767 16.7152 14.8157C16.5644 15.2067 16.3335 15.5617 16.0372 15.858C15.7409 16.1542 15.3859 16.3852 14.995 16.5359C14.4559 16.7354 13.8866 16.8409 13.3119 16.848C12.3564 16.8911 12.0699 16.9006 9.64969 16.9006C7.22949 16.9006 6.94294 16.8915 5.98746 16.848C5.41272 16.8409 4.84345 16.7354 4.30438 16.5359C3.91345 16.3852 3.55843 16.1542 3.26216 15.858C2.96589 15.5617 2.73494 15.2067 2.58418 14.8157C2.38473 14.2767 2.27919 13.7074 2.27216 13.1327C2.229 12.1767 2.21951 11.8902 2.21951 9.47043C2.21951 7.05067 2.22857 6.76411 2.27216 5.80821C2.27919 5.23347 2.38473 4.66419 2.58418 4.12512C2.73494 3.7342 2.96589 3.37917 3.26216 3.0829C3.55843 2.78663 3.91345 2.55568 4.30438 2.40492C4.84345 2.20547 5.41272 2.09994 5.98746 2.0929C6.94337 2.04975 7.22993 2.04025 9.64969 2.04025V2.04025ZM9.64969 0.407227C7.18979 0.407227 6.87993 0.417584 5.91324 0.461603C5.16105 0.476564 4.41684 0.618985 3.71228 0.882806C3.10787 1.11053 2.56044 1.46738 2.10817 1.92848C1.64665 2.38091 1.28949 2.92866 1.06163 3.53345C0.797809 4.23802 0.655389 4.98222 0.640428 5.73441C0.597272 6.70024 0.586914 7.0101 0.586914 9.47C0.586914 11.9299 0.597271 12.2398 0.641291 13.2064C0.656252 13.9586 0.798672 14.7028 1.06249 15.4074C1.2901 16.0121 1.64697 16.5599 2.10817 17.0124C2.56069 17.4736 3.10843 17.8304 3.71314 18.0581C4.4177 18.3219 5.16191 18.4643 5.9141 18.4793C6.88079 18.5224 7.18936 18.5336 9.65055 18.5336C12.1117 18.5336 12.4203 18.5233 13.387 18.4793C14.1392 18.4643 14.8834 18.3219 15.588 18.0581C16.1898 17.8248 16.7363 17.4684 17.1926 17.0119C17.6489 16.5553 18.0048 16.0085 18.2377 15.4065C18.5016 14.702 18.644 13.9578 18.6589 13.2056C18.7021 12.2398 18.7125 11.9299 18.7125 9.47C18.7125 7.0101 18.7021 6.70024 18.6581 5.73355C18.6431 4.98136 18.5007 4.23715 18.2369 3.53259C18.0093 2.92788 17.6524 2.38014 17.1912 1.92761C16.7387 1.46641 16.1909 1.10955 15.5862 0.881943C14.8817 0.618122 14.1375 0.475701 13.3853 0.46074C12.4194 0.417584 12.1096 0.407227 9.64969 0.407227Z" fill="#C9D4D8"/>
<path d="M9.65151 4.81787C8.73105 4.81787 7.83125 5.09082 7.06591 5.6022C6.30058 6.11359 5.70407 6.84043 5.35182 7.69083C4.99958 8.54123 4.90741 9.47698 5.08698 10.3798C5.26656 11.2825 5.7098 12.1118 6.36067 12.7627C7.01154 13.4135 7.84079 13.8568 8.74357 14.0363C9.64635 14.2159 10.5821 14.1238 11.4325 13.7715C12.2829 13.4193 13.0097 12.8228 13.5211 12.0574C14.0325 11.2921 14.3055 10.3923 14.3055 9.47182C14.3055 8.23752 13.8151 7.05377 12.9423 6.18098C12.0696 5.3082 10.8858 4.81787 9.65151 4.81787ZM9.65151 12.4927C9.05403 12.4927 8.46996 12.3156 7.97317 11.9836C7.47639 11.6517 7.08919 11.1799 6.86054 10.6279C6.63189 10.0759 6.57207 9.46847 6.68863 8.88247C6.80519 8.29647 7.09291 7.75819 7.51539 7.3357C7.93788 6.91322 8.47615 6.62551 9.06216 6.50894C9.64816 6.39238 10.2556 6.4522 10.8076 6.68085C11.3596 6.9095 11.8314 7.2967 12.1633 7.79348C12.4953 8.29027 12.6724 8.87434 12.6724 9.47182C12.6724 10.273 12.3542 11.0414 11.7876 11.6079C11.2211 12.1745 10.4527 12.4927 9.65151 12.4927V12.4927Z" fill="#C9D4D8"/>
<path d="M14.4884 5.72048C15.089 5.72048 15.5759 5.23357 15.5759 4.63294C15.5759 4.03231 15.089 3.54541 14.4884 3.54541C13.8878 3.54541 13.4009 4.03231 13.4009 4.63294C13.4009 5.23357 13.8878 5.72048 14.4884 5.72048Z" fill="#C9D4D8"/>
</svg>
