<svg width="113" height="23" viewBox="0 0 113 23" fill="none" xmlns="http://www.w3.org/2000/svg">
<g opacity="0.8" clip-path="url(#clip0_268_13)">
<path d="M13.7868 3.09481H5.90855V0.632812H13.7868C16.5064 0.632812 18.7108 2.83736 18.7108 5.55681V13.4352H16.2488V5.55681C16.2488 4.1971 15.1466 3.09481 13.7868 3.09481Z" fill="#C0C0C0"/>
<path d="M4.924 16.8814H12.8023V19.3433H4.924C2.20455 19.3433 0 17.1389 0 14.4194V6.54102H2.462V14.4194C2.462 15.7791 3.56426 16.8814 4.924 16.8814Z" fill="#C0C0C0"/>
<path fill-rule="evenodd" clip-rule="evenodd" d="M14.2793 9.98845C14.2793 12.7079 12.0749 14.9124 9.35539 14.9124C6.63596 14.9124 4.43141 12.7079 4.43141 9.98845C4.43141 7.26897 6.63596 5.06445 9.35539 5.06445C12.0749 5.06445 14.2793 7.26897 14.2793 9.98845ZM11.8174 9.98845C11.8174 11.3482 10.7151 12.4505 9.35539 12.4505C7.99568 12.4505 6.89344 11.3482 6.89344 9.98845C6.89344 8.62874 7.99568 7.52643 9.35539 7.52643C10.7151 7.52643 11.8174 8.62874 11.8174 9.98845Z" fill="#C0C0C0"/>
<path d="M29.2179 17.7743C28.2856 17.7743 27.4463 17.6145 26.7 17.2947C25.9541 16.9618 25.3678 16.4956 24.9417 15.8961C24.5153 15.2965 24.3021 14.5971 24.3021 13.7977H26.7402C26.7934 14.3971 27.0265 14.8901 27.4397 15.2766C27.8658 15.6629 28.4586 15.8562 29.2179 15.8562C30.004 15.8562 30.6168 15.6695 31.0566 15.2965C31.496 14.9102 31.7159 14.4174 31.7159 13.8179C31.7159 13.3516 31.576 12.972 31.2964 12.6787C31.0297 12.3856 30.6902 12.1591 30.2771 11.9993C29.8775 11.8394 29.3179 11.6662 28.5985 11.4797C27.6927 11.2399 26.9534 11.0001 26.3805 10.7603C25.8209 10.5072 25.3413 10.1209 24.9417 9.60131C24.5419 9.08178 24.3422 8.38901 24.3422 7.52306C24.3422 6.72375 24.5419 6.02434 24.9417 5.42485C25.3413 4.82535 25.9009 4.36574 26.6203 4.046C27.3397 3.72626 28.1724 3.56641 29.1182 3.56641C30.4637 3.56641 31.5628 3.90611 32.4153 4.58555C33.2812 5.25164 33.7608 6.17088 33.8541 7.34318H31.3362C31.2964 6.83698 31.0566 6.404 30.6168 6.0443C30.1771 5.68461 29.5978 5.50476 28.8785 5.50476C28.2255 5.50476 27.6927 5.67129 27.2796 6.00435C26.8667 6.33741 26.6602 6.81702 26.6602 7.44316C26.6602 7.86941 26.7867 8.22246 27.0398 8.50225C27.3062 8.76871 27.6393 8.98186 28.0392 9.14171C28.4387 9.30156 28.9848 9.47474 29.6776 9.66124C30.5969 9.91438 31.3429 10.1675 31.9158 10.4206C32.502 10.6737 32.9949 11.0667 33.3944 11.5996C33.8076 12.1192 34.0139 12.8185 34.0139 13.6979C34.0139 14.4038 33.8209 15.07 33.4346 15.6961C33.0613 16.3222 32.5087 16.8287 31.776 17.2149C31.0566 17.5879 30.204 17.7743 29.2179 17.7743Z" fill="#C0C0C0"/>
<path d="M41.2582 6.44531C42.1244 6.44531 42.897 6.62517 43.5765 6.98484C44.269 7.34452 44.8087 7.87744 45.195 8.58354C45.5813 9.28957 45.7745 10.1422 45.7745 11.1413V17.6358H43.5164V11.4811C43.5164 10.4952 43.2699 9.74254 42.777 9.22294C42.2842 8.69009 41.6113 8.42362 40.7587 8.42362C39.9061 8.42362 39.2266 8.69009 38.7204 9.22294C38.2275 9.74254 37.9811 10.4952 37.9811 11.4811V17.6358H35.703V6.62517H37.9811V7.88407C38.3541 7.43117 38.827 7.07812 39.4 6.82499C39.9861 6.57187 40.6056 6.44531 41.2582 6.44531Z" fill="#C0C0C0"/>
<path d="M46.9216 12.0806C46.9216 10.9748 47.148 9.99567 47.6011 9.14305C48.0674 8.29043 48.6934 7.63094 49.4794 7.16471C50.2787 6.68511 51.1579 6.44531 52.1171 6.44531C52.9833 6.44531 53.7358 6.6185 54.3752 6.96488C55.0282 7.29791 55.5476 7.71759 55.934 8.22379V6.62517H58.232V17.6358H55.934V15.9973C55.5476 16.5168 55.0213 16.9499 54.3553 17.296C53.6891 17.6424 52.9298 17.8157 52.0772 17.8157C51.1313 17.8157 50.2654 17.5759 49.4794 17.0964C48.6934 16.6034 48.0674 15.924 47.6011 15.058C47.148 14.1789 46.9216 13.1862 46.9216 12.0806ZM55.934 12.1205C55.934 11.3611 55.7742 10.7017 55.4544 10.1422C55.148 9.58269 54.7416 9.15638 54.2354 8.86326C53.7292 8.57021 53.1829 8.42362 52.5967 8.42362C52.0105 8.42362 51.4645 8.57021 50.9583 8.86326C50.4518 9.14305 50.0389 9.56266 49.7191 10.1222C49.4129 10.6684 49.2597 11.3212 49.2597 12.0806C49.2597 12.8398 49.4129 13.506 49.7191 14.0789C50.0389 14.6516 50.4518 15.0913 50.9583 15.3978C51.4777 15.6908 52.024 15.8373 52.5967 15.8373C53.1829 15.8373 53.7292 15.6908 54.2354 15.3978C54.7416 15.1046 55.148 14.6784 55.4544 14.1188C55.7742 13.5459 55.934 12.8799 55.934 12.1205Z" fill="#C0C0C0"/>
<path d="M62.5031 8.24375C62.8894 7.73755 63.4158 7.31124 64.0818 6.96488C64.748 6.6185 65.5006 6.44531 66.3399 6.44531C67.2991 6.44531 68.1713 6.68511 68.9581 7.16471C69.757 7.63094 70.3834 8.29043 70.8359 9.14305C71.2892 9.99567 71.5158 10.9748 71.5158 12.0806C71.5158 13.1862 71.2892 14.1789 70.8359 15.058C70.3834 15.924 69.757 16.6034 68.9581 17.0964C68.1713 17.5759 67.2991 17.8157 66.3399 17.8157C65.5006 17.8157 64.7546 17.6491 64.1019 17.3162C63.449 16.9698 62.9162 16.5434 62.5031 16.0372V22.8715H60.225V6.62517H62.5031V8.24375ZM69.1975 12.0806C69.1975 11.3212 69.0379 10.6684 68.7179 10.1222C68.4115 9.56266 67.9988 9.14305 67.4791 8.86326C66.9726 8.57021 66.4266 8.42362 65.8403 8.42362C65.2674 8.42362 64.7214 8.57021 64.2017 8.86326C63.6955 9.15638 63.2826 9.58269 62.9628 10.1422C62.6565 10.7017 62.5031 11.3611 62.5031 12.1205C62.5031 12.8799 62.6565 13.5459 62.9628 14.1188C63.2826 14.6784 63.6955 15.1046 64.2017 15.3978C64.7214 15.6908 65.2674 15.8373 65.8403 15.8373C66.4266 15.8373 66.9726 15.6908 67.4791 15.3978C67.9988 15.0913 68.4115 14.6516 68.7179 14.0789C69.0379 13.506 69.1975 12.8398 69.1975 12.0806Z" fill="#C0C0C0"/>
<path d="M77.3449 17.7743C76.4128 17.7743 75.5733 17.6145 74.8271 17.2947C74.081 16.9618 73.4951 16.4956 73.069 15.8961C72.6428 15.2965 72.429 14.5971 72.429 13.7977H74.8677C74.9205 14.3971 75.1538 14.8901 75.5665 15.2766C75.9927 15.6629 76.5859 15.8562 77.3449 15.8562C78.131 15.8562 78.7439 15.6695 79.1836 15.2965C79.6233 14.9102 79.8431 14.4174 79.8431 13.8179C79.8431 13.3516 79.7031 12.972 79.4237 12.6787C79.1572 12.3856 78.8176 12.1591 78.4043 11.9993C78.0045 11.8394 77.445 11.6662 76.726 11.4797C75.8202 11.2399 75.0801 11.0001 74.5078 10.7603C73.9484 10.5072 73.4688 10.1209 73.069 9.60131C72.6692 9.08178 72.4696 8.38901 72.4696 7.52306C72.4696 6.72375 72.6692 6.02434 73.069 5.42485C73.4688 4.82535 74.0282 4.36574 74.7473 4.046C75.467 3.72626 76.2998 3.56641 77.2455 3.56641C78.591 3.56641 79.6903 3.90611 80.5426 4.58555C81.4085 5.25164 81.8881 6.17088 81.9815 7.34318H79.4636C79.4237 6.83698 79.1836 6.404 78.7439 6.0443C78.3042 5.68461 77.7244 5.50476 77.0053 5.50476C76.3525 5.50476 75.8202 5.67129 75.4068 6.00435C74.9942 6.33741 74.7872 6.81702 74.7872 7.44316C74.7872 7.86941 74.9137 8.22246 75.1667 8.50225C75.4332 8.76871 75.7667 8.98186 76.1658 9.14171C76.5656 9.30156 77.1122 9.47474 77.8049 9.66124C78.7243 9.91438 79.4704 10.1675 80.0427 10.4206C80.6292 10.6737 81.1223 11.0667 81.5215 11.5996C81.9348 12.1192 82.1411 12.8185 82.1411 13.6979C82.1411 14.4038 81.9483 15.07 81.5614 15.6961C81.1886 16.3222 80.636 16.8287 79.9033 17.2149C79.1836 17.5879 78.3312 17.7743 77.3449 17.7743Z" fill="#C0C0C0"/>
<path d="M89.5248 6.44463C90.3636 6.44463 91.1104 6.62449 91.7626 6.98417C92.4289 7.34385 92.9484 7.87678 93.3218 8.58281C93.7081 9.28891 93.9009 10.1415 93.9009 11.1407V17.6351H91.6428V11.4804C91.6428 10.4945 91.3966 9.74187 90.9034 9.22227C90.411 8.68942 89.7379 8.42296 88.8855 8.42296C88.0325 8.42296 87.3533 8.68942 86.8467 9.22227C86.3542 9.74187 86.1073 10.4945 86.1073 11.4804V17.6351H83.8296V2.84766H86.1073V7.90336C86.4942 7.43714 86.9799 7.07739 87.5664 6.82432C88.1658 6.57118 88.8186 6.44463 89.5248 6.44463Z" fill="#C0C0C0"/>
<path d="M100.584 17.8157C99.5447 17.8157 98.6058 17.5826 97.7663 17.1163C96.9274 16.6367 96.2679 15.9705 95.7883 15.1179C95.3086 14.252 95.0685 13.2529 95.0685 12.1205C95.0685 11.0014 95.3147 10.0089 95.8079 9.14305C96.301 8.2771 96.9734 7.61098 97.8265 7.14469C98.6788 6.67844 99.6313 6.44531 100.684 6.44531C101.736 6.44531 102.689 6.67844 103.541 7.14469C104.394 7.61098 105.067 8.2771 105.56 9.14305C106.053 10.0089 106.299 11.0014 106.299 12.1205C106.299 13.2396 106.046 14.2321 105.54 15.098C105.034 15.9638 104.341 16.6367 103.461 17.1163C102.596 17.5826 101.636 17.8157 100.584 17.8157ZM100.584 15.8373C101.17 15.8373 101.716 15.6974 102.223 15.4178C102.742 15.1381 103.162 14.7183 103.482 14.1587C103.801 13.5994 103.961 12.9199 103.961 12.1205C103.961 11.3212 103.808 10.6485 103.501 10.1022C103.195 9.54271 102.788 9.12303 102.282 8.84331C101.776 8.56352 101.23 8.42362 100.644 8.42362C100.058 8.42362 99.5115 8.56352 99.0055 8.84331C98.5124 9.12303 98.1194 9.54271 97.8265 10.1022C97.5335 10.6485 97.3867 11.3212 97.3867 12.1205C97.3867 13.3061 97.6864 14.2254 98.2858 14.8781C98.8987 15.5177 99.6644 15.8373 100.584 15.8373Z" fill="#C0C0C0"/>
<path d="M110.209 8.4828V14.5777C110.209 14.9906 110.303 15.2905 110.489 15.4768C110.689 15.6501 111.022 15.7369 111.488 15.7369H112.887V17.635H111.089C110.063 17.635 109.277 17.3952 108.731 16.9156C108.185 16.4361 107.911 15.6568 107.911 14.5777V8.4828H106.613V6.62442H107.911V3.88672H110.209V6.62442H112.887V8.4828H110.209Z" fill="#C0C0C0"/>
</g>
<defs>
<clipPath id="clip0_268_13">
<rect width="112.971" height="23" fill="white"/>
</clipPath>
</defs>
</svg>
