<svg width="16" height="13" viewBox="0 0 16 13" fill="none" xmlns="http://www.w3.org/2000/svg">
<path d="M15.0312 1.43271C14.4706 1.68186 13.8789 1.83758 13.256 1.93101C13.8789 1.55728 14.3772 0.965557 14.5952 0.249255C14.0034 0.591834 13.3494 0.840982 12.6331 0.9967C12.0725 0.404973 11.2628 0.03125 10.3908 0.03125C8.70904 0.03125 7.33872 1.40157 7.33872 3.08332C7.33872 3.33247 7.36986 3.55047 7.43215 3.76848C4.90952 3.6439 2.63605 2.4293 1.11001 0.56069C0.860864 1.02784 0.705146 1.52614 0.705146 2.08672C0.705146 3.1456 1.23459 4.07991 2.07546 4.6405C1.57717 4.60935 1.11001 4.48478 0.674003 4.26677V4.29792C0.674003 5.79281 1.73288 7.03855 3.13434 7.31884C2.88519 7.38113 2.6049 7.41227 2.32461 7.41227C2.13775 7.41227 1.91974 7.38113 1.73288 7.34998C2.13775 8.56458 3.25892 9.46775 4.59809 9.46775C3.53921 10.2775 2.23118 10.7758 0.798577 10.7758C0.549429 10.7758 0.30028 10.7758 0.0822754 10.7446C1.45259 11.6167 3.04091 12.1149 4.78495 12.1149C10.4219 12.1149 13.5051 7.44341 13.5051 3.39475C13.5051 3.27018 13.5051 3.11446 13.5051 2.98989C14.0969 2.58502 14.6263 2.05558 15.0312 1.43271Z" fill="#C9D4D8"/>
</svg>
