<svg width="102" height="23" viewBox="0 0 102 23" fill="none" xmlns="http://www.w3.org/2000/svg">
<g opacity="0.8" clip-path="url(#clip0_268_25)">
<path fill-rule="evenodd" clip-rule="evenodd" d="M4.26308 6.2294C5.9519 3.95779 8.65626 2.48609 11.7044 2.48609C14.7703 2.48609 17.4885 3.97515 19.1752 6.26954C19.1035 6.34338 19.0381 6.41988 18.9789 6.4963C18.6699 6.89641 18.4375 7.41181 18.2512 7.93513C17.8762 8.98772 17.5901 10.3626 17.3252 11.6502L17.3017 11.7659C17.0374 13.0511 16.7918 14.2463 16.4947 15.1335C16.3613 15.5321 16.2348 15.8138 16.1225 15.9944C16.0054 15.8124 15.8726 15.5272 15.732 15.1229C15.4143 14.2101 15.1472 12.9687 14.864 11.6431L14.8548 11.5998C14.5826 10.3265 14.2939 8.97554 13.934 7.94142C13.7531 7.42196 13.5312 6.91177 13.241 6.51535C12.9561 6.12632 12.482 5.68727 11.7886 5.68727C11.0995 5.68727 10.6232 6.12156 10.3343 6.50623C10.0385 6.90006 9.80782 7.40816 9.61787 7.92789C9.23526 8.97446 8.92246 10.3434 8.6313 11.6327L8.60127 11.7659C8.31296 13.0431 8.04345 14.2371 7.73755 15.126C7.62079 15.4655 7.51059 15.7237 7.41081 15.9083C7.31333 15.7246 7.20591 15.4681 7.09233 15.1315C6.79881 14.2615 6.54175 13.1009 6.26564 11.8543L6.21731 11.6362C5.93121 10.3461 5.62084 8.97466 5.23278 7.92485C5.03997 7.40315 4.80415 6.89249 4.49897 6.49682C4.42987 6.40726 4.35133 6.31635 4.26308 6.2294ZM3.24096 7.97362C3.32139 8.13246 3.40648 8.32931 3.49446 8.56736C3.83035 9.47606 4.11493 10.716 4.40797 12.0375L4.46499 12.2949C4.73181 13.5007 5.00936 14.7548 5.33626 15.7237C5.51013 16.2391 5.7201 16.7439 5.99015 17.1362C6.24552 17.5073 6.70365 17.9865 7.40811 17.9865C8.11056 17.9865 8.56974 17.5096 8.82687 17.1402C9.09922 16.7488 9.31264 16.2446 9.49001 15.729C9.83008 14.7408 10.1196 13.4572 10.3967 12.2288L10.4391 12.0409C10.7376 10.7187 11.025 9.47627 11.3585 8.56425C11.5129 8.14172 11.6576 7.84732 11.7835 7.66475C11.9028 7.84577 12.0391 8.13543 12.1837 8.55072C12.5014 9.46348 12.7683 10.7049 13.0516 12.0305L13.0609 12.0739C13.333 13.3472 13.6217 14.6981 13.9816 15.7321C14.1625 16.2518 14.3844 16.762 14.6746 17.1583C14.9595 17.5474 15.4336 17.9865 16.1269 17.9865C16.8239 17.9865 17.2962 17.5434 17.5777 17.1508C17.8636 16.7525 18.0785 16.2406 18.2521 15.7218C18.5858 14.7252 18.8513 13.4322 19.1041 12.2021L19.1405 12.0234C19.4128 10.6995 19.6743 9.46301 19.9971 8.55701C20.0671 8.35989 20.136 8.19185 20.2017 8.05074C20.6964 9.1845 20.9707 10.4365 20.9707 11.7525C20.9707 16.8702 16.8221 21.019 11.7044 21.019C6.58666 21.019 2.43793 16.8702 2.43793 11.7525C2.43793 10.4066 2.72489 9.12768 3.24096 7.97362ZM11.7044 0.632812C5.56313 0.632812 0.584656 5.61128 0.584656 11.7525C0.584656 17.8938 5.56313 22.8722 11.7044 22.8722C17.8458 22.8722 22.8239 17.8938 22.8239 11.7525C22.8239 5.61128 17.8458 0.632812 11.7044 0.632812ZM11.9162 7.50956C11.9162 7.50956 11.9141 7.51152 11.9097 7.51409C11.914 7.51064 11.9162 7.50956 11.9162 7.50956ZM11.6601 7.51085C11.6557 7.50821 11.6536 7.50618 11.6536 7.50618C11.6536 7.50618 11.6558 7.50726 11.6601 7.51085ZM15.986 16.1703C15.986 16.1703 15.988 16.1683 15.992 16.1657C15.988 16.1691 15.986 16.1703 15.986 16.1703ZM16.2554 16.1628C16.2597 16.1654 16.262 16.1674 16.262 16.1674C16.262 16.1674 16.2597 16.1663 16.2554 16.1628ZM7.21822 16.1869C7.21822 16.1869 7.22086 16.1841 7.22621 16.1803C7.22093 16.1852 7.21822 16.1869 7.21822 16.1869ZM7.59353 16.1821C7.59881 16.1858 7.60144 16.1886 7.60144 16.1886C7.60144 16.1886 7.59874 16.1872 7.59353 16.1821Z" fill="#C0C0C0"/>
<path d="M28.9639 18.3351L26.2674 9.11133H28.6294L30.2286 15.7501L32.0881 9.11133H34.7287L36.5885 15.7501L38.2064 9.11133H40.568L37.8531 18.3351H35.3798L33.4084 11.4359L31.4373 18.3351H28.9639Z" fill="#C0C0C0"/>
<path d="M44.0338 18.5588C43.2404 18.5588 42.5895 18.4346 42.0813 18.1866C41.5731 17.9264 41.1949 17.5854 40.9469 17.1639C40.699 16.7424 40.5751 16.2775 40.5751 15.7693C40.5751 14.9139 40.9097 14.2196 41.5792 13.6865C42.2486 13.1534 43.253 12.8868 44.592 12.8868H46.935V12.6636C46.935 12.0314 46.755 11.5665 46.3958 11.269C46.0362 10.9714 45.5897 10.8226 45.0568 10.8226C44.5733 10.8226 44.1517 10.9404 43.7922 11.176C43.4326 11.3991 43.2093 11.7338 43.1227 12.1802H40.798C40.8603 11.5107 41.0832 10.928 41.4675 10.4321C41.8644 9.93625 42.3726 9.55811 42.9924 9.2978C43.6125 9.02505 44.3067 8.88867 45.0752 8.88867C46.3895 8.88867 47.4245 9.21717 48.1809 9.87422C48.9371 10.5313 49.3153 11.4612 49.3153 12.6636V18.3356H47.2882L47.0652 16.848C46.7923 17.3439 46.4081 17.7527 45.9122 18.0753C45.4287 18.3975 44.8025 18.5588 44.0338 18.5588ZM44.5733 16.6991C45.2551 16.6991 45.7819 16.4758 46.1539 16.0296C46.5381 15.5834 46.78 15.0315 46.8793 14.3745H44.8522C44.2198 14.3745 43.7675 14.4924 43.4946 14.7278C43.222 14.951 43.0854 15.2301 43.0854 15.5647C43.0854 15.9242 43.222 16.2032 43.4946 16.4015C43.7675 16.5998 44.1267 16.6991 44.5733 16.6991Z" fill="#C0C0C0"/>
<path d="M53.0627 18.3351L49.6783 9.11133H52.1699L54.5133 16.0851L56.8563 9.11133H59.3483L55.9452 18.3351H53.0627Z" fill="#C0C0C0"/>
<path d="M64.1334 18.5588C63.2037 18.5588 62.3792 18.3603 61.6601 17.9637C60.9412 17.5668 60.3771 17.009 59.9679 16.2899C59.5587 15.571 59.3544 14.7403 59.3544 13.798C59.3544 12.8435 59.5526 11.9942 59.9493 11.2504C60.3585 10.5065 60.9163 9.93003 61.623 9.5209C62.3419 9.09939 63.185 8.88867 64.152 8.88867C65.0571 8.88867 65.8569 9.08701 66.5511 9.4837C67.2452 9.88045 67.7844 10.426 68.1686 11.1202C68.5657 11.802 68.7639 12.5645 68.7639 13.4076C68.7639 13.5439 68.7579 13.6865 68.7457 13.8352C68.7457 13.9841 68.7389 14.139 68.7267 14.3002H61.7161C61.7657 15.0192 62.0136 15.5834 62.4598 15.9926C62.9184 16.4015 63.4702 16.6061 64.115 16.6061C64.5983 16.6061 65.0015 16.5008 65.3237 16.2899C65.6583 16.0669 65.9063 15.7816 66.0675 15.4344H68.4852C68.3114 16.0173 68.0198 16.5504 67.6111 17.0339C67.2142 17.5048 66.7184 17.8767 66.1232 18.1496C65.5407 18.4222 64.8772 18.5588 64.1334 18.5588ZM64.152 10.8226C63.5695 10.8226 63.055 10.9901 62.6085 11.3247C62.1623 11.6471 61.8771 12.143 61.7531 12.8125H66.3464C66.3092 12.2049 66.0862 11.7215 65.677 11.3619C65.2677 11.0024 64.7596 10.8226 64.152 10.8226Z" fill="#C0C0C0"/>
<path d="M70.0222 18.3347V4.94531H72.402V18.3347H70.0222Z" fill="#C0C0C0"/>
<path d="M78.5721 18.5588C77.6419 18.5588 76.8173 18.3603 76.0982 17.9637C75.3798 17.5668 74.8156 17.009 74.4063 16.2899C73.9971 15.571 73.7928 14.7403 73.7928 13.798C73.7928 12.8435 73.991 11.9942 74.3874 11.2504C74.7967 10.5065 75.3548 9.93003 76.0617 9.5209C76.7808 9.09939 77.6236 8.88867 78.5903 8.88867C79.4954 8.88867 80.295 9.08701 80.9898 9.4837C81.6838 9.88045 82.223 10.426 82.6072 11.1202C83.0036 11.802 83.2025 12.5645 83.2025 13.4076C83.2025 13.5439 83.1964 13.6865 83.1836 13.8352C83.1836 13.9841 83.1775 14.139 83.1653 14.3002H76.1543C76.2044 15.0192 76.452 15.5834 76.8985 15.9926C77.3571 16.4015 77.9084 16.6061 78.5531 16.6061C79.0368 16.6061 79.44 16.5008 79.762 16.2899C80.0968 16.0669 80.3444 15.7816 80.5061 15.4344H82.9238C82.7499 16.0173 82.4584 16.5504 82.0498 17.0339C81.6527 17.5048 81.1568 17.8767 80.5616 18.1496C79.9791 18.4222 79.3162 18.5588 78.5721 18.5588ZM78.5903 10.8226C78.0079 10.8226 77.4931 10.9901 77.0466 11.3247C76.6008 11.6471 76.3153 12.143 76.1915 12.8125H80.7848C80.7476 12.2049 80.5243 11.7215 80.1151 11.3619C79.7058 11.0024 79.1978 10.8226 78.5903 10.8226Z" fill="#C0C0C0"/>
<path d="M88.2733 18.5588C87.4555 18.5588 86.7364 18.4285 86.1161 18.1683C85.4964 17.8954 85.0006 17.5235 84.6285 17.0523C84.2564 16.5814 84.0339 16.0359 83.9588 15.4161H86.3582C86.432 15.7753 86.6309 16.0855 86.9529 16.3458C87.2877 16.5937 87.7159 16.7177 88.2361 16.7177C88.757 16.7177 89.1352 16.6124 89.3706 16.4015C89.6182 16.1908 89.7426 15.9489 89.7426 15.6763C89.7426 15.2795 89.5688 15.0129 89.2217 14.8767C88.8747 14.7278 88.391 14.5853 87.7714 14.4489C87.375 14.3621 86.9718 14.2567 86.5625 14.1328C86.1533 14.0088 85.7751 13.8538 85.4281 13.6679C85.0932 13.4695 84.8206 13.2216 84.6096 12.924C84.3992 12.6141 84.2937 12.236 84.2937 11.7896C84.2937 10.9714 84.6163 10.2834 85.261 9.72547C85.9179 9.16758 86.8352 8.88867 88.0129 8.88867C89.104 8.88867 89.9719 9.14275 90.6166 9.65105C91.2735 10.1594 91.6645 10.8598 91.7883 11.7524H89.5383C89.4017 11.0706 88.8869 10.7297 87.9946 10.7297C87.5482 10.7297 87.2011 10.8165 86.9529 10.9901C86.7174 11.1636 86.5997 11.3805 86.5997 11.6409C86.5997 11.9136 86.7797 12.1306 87.1389 12.2918C87.4988 12.4529 87.9757 12.6017 88.571 12.7381C89.2157 12.8868 89.8042 13.0542 90.3372 13.2402C90.8832 13.4137 91.3168 13.6803 91.6394 14.0398C91.9614 14.387 92.1224 14.889 92.1224 15.546C92.1353 16.1165 91.9865 16.6307 91.6767 17.0896C91.3668 17.5482 90.9204 17.9077 90.3372 18.1683C89.7548 18.4285 89.0668 18.5588 88.2733 18.5588Z" fill="#C0C0C0"/>
<path d="M97.2995 18.5588C96.4809 18.5588 95.7618 18.4285 95.1422 18.1683C94.5225 17.8954 94.026 17.5235 93.6546 17.0523C93.2826 16.5814 93.0593 16.0359 92.9849 15.4161H95.3837C95.4581 15.7753 95.6563 16.0855 95.979 16.3458C96.3138 16.5937 96.7414 16.7177 97.2623 16.7177C97.7825 16.7177 98.1606 16.6124 98.3967 16.4015C98.6443 16.1908 98.7681 15.9489 98.7681 15.6763C98.7681 15.2795 98.5949 15.0129 98.2479 14.8767C97.9008 14.7278 97.4172 14.5853 96.7975 14.4489C96.4004 14.3621 95.9973 14.2567 95.588 14.1328C95.1794 14.0088 94.8013 13.8538 94.4542 13.6679C94.1194 13.4695 93.8468 13.2216 93.6357 12.924C93.4246 12.6141 93.3198 12.236 93.3198 11.7896C93.3198 10.9714 93.6418 10.2834 94.2865 9.72547C94.944 9.16758 95.8613 8.88867 97.039 8.88867C98.1302 8.88867 98.9974 9.14275 99.6428 9.65105C100.3 10.1594 100.69 10.8598 100.814 11.7524H98.5638C98.4271 11.0706 97.913 10.7297 97.0201 10.7297C96.5743 10.7297 96.2266 10.8165 95.979 10.9901C95.7429 11.1636 95.6259 11.3805 95.6259 11.6409C95.6259 11.9136 95.8051 12.1306 96.165 12.2918C96.5242 12.4529 97.0018 12.6017 97.5964 12.7381C98.2418 12.8868 98.8303 13.0542 99.3634 13.2402C99.9093 13.4137 100.343 13.6803 100.665 14.0398C100.988 14.387 101.149 14.889 101.149 15.546C101.161 16.1165 101.013 16.6307 100.703 17.0896C100.392 17.5482 99.9458 17.9077 99.3634 18.1683C98.7809 18.4285 98.0923 18.5588 97.2995 18.5588Z" fill="#C0C0C0"/>
</g>
<defs>
<clipPath id="clip0_268_25">
<rect width="101.471" height="23" fill="white"/>
</clipPath>
</defs>
</svg>
