<svg width="195" height="42" viewBox="0 0 195 42" fill="none" xmlns="http://www.w3.org/2000/svg">
<path d="M17.3333 3.4668V14.1791C17.3333 16.5422 14.436 17.68 12.8281 15.9483L6.06667 8.6668M34.6667 20.8001H23.9543C21.5913 20.8001 20.4535 17.9028 22.1852 16.2948L29.4667 9.53346M17.3333 38.1335V27.4211C17.3333 25.0581 20.2307 23.9203 21.8386 25.652L28.6 32.9335M0 20.8001H10.7123C13.0754 20.8001 14.2132 23.6975 12.4815 25.3054L5.2 32.0668" stroke="#989898" stroke-width="3.46667"/>
<path d="M49.0662 28.9982C44.6202 28.9982 41.6952 27.0326 41.6016 23.3354H45.7668C45.954 25.0202 47.0538 25.7222 49.0428 25.7222C50.4 25.7222 51.7338 25.2308 51.7338 23.9672C51.7338 22.6334 50.3766 22.3526 48.0834 21.791C45.1818 21.1124 42.1164 20.2232 42.1164 16.7132C42.1164 13.133 45.018 11.5652 48.762 11.5652C52.389 11.5652 55.197 13.2032 55.3608 16.7132H51.3126C51.1488 15.4262 50.166 14.7008 48.6216 14.7008C47.1708 14.7008 46.2114 15.3326 46.2114 16.2686C46.2114 17.4386 47.4984 17.7194 50.0022 18.281C53.1144 19.0064 55.9224 19.9658 55.9224 23.546C55.9224 27.056 52.9272 28.9982 49.0662 28.9982Z" fill="#989898"/>
<path d="M63.3452 26.2604C65.0066 26.2604 65.8958 24.8096 65.8958 22.6334C65.8958 20.4572 65.0066 18.983 63.3452 18.983C61.6838 18.983 60.818 20.4572 60.818 22.6334C60.818 24.8096 61.6838 26.2604 63.3452 26.2604ZM63.3686 28.9748C59.531 28.9748 56.957 26.237 56.957 22.6334C56.957 19.0298 59.531 16.292 63.3686 16.292C67.2296 16.292 69.7568 19.0298 69.7568 22.6334C69.7568 26.237 67.2296 28.9748 63.3686 28.9748Z" fill="#989898"/>
<path d="M71.0703 28.6004V11.8694H74.9313V28.6004H71.0703Z" fill="#989898"/>
<path d="M80.2943 28.9046C77.9075 28.9046 76.2227 27.641 76.2227 25.2776C76.2227 22.6334 78.3287 21.8144 80.8091 21.4868C83.0555 21.206 83.8511 20.972 83.8511 20.153C83.8511 19.3808 83.3363 18.866 82.1663 18.866C80.9261 18.866 80.3411 19.4042 80.2475 20.4104H76.7375C76.8077 18.1874 78.4925 16.292 82.1429 16.292C83.9681 16.292 85.3721 16.6898 86.2613 17.4152C87.1736 18.1874 87.5948 19.1936 87.5948 20.6912V25.3946C87.5948 26.1668 87.8054 26.354 88.3904 26.2604H88.4606V28.4834C88.1564 28.6238 87.5714 28.811 86.7992 28.811C85.1615 28.811 84.3191 28.3196 84.0383 27.1964H84.0149C83.3129 28.1792 82.2365 28.9046 80.2943 28.9046ZM81.5345 26.471C82.9619 26.471 83.9447 25.6052 83.9447 24.3182V22.8908C83.4533 23.1716 82.7513 23.3588 81.9791 23.5226C80.5049 23.8502 79.8965 24.2246 79.8965 25.1372C79.8965 26.0732 80.5985 26.471 81.5345 26.471Z" fill="#989898"/>
<path d="M89.4453 28.6004V16.6196H93.3089L93.0957 18.4916H93.1659C94.0083 17.0642 94.9911 16.4324 96.4419 16.4324C96.7929 16.4324 97.0269 16.4558 97.1907 16.526V19.802H97.0971C94.7571 19.4744 93.2595 20.621 93.2595 23.2184V28.6004H89.4453Z" fill="#989898"/>
<path d="M98.4023 28.6004V16.6196H102.217V28.6004H98.4023Z" fill="#989898"/>
<path d="M109.147 28.9748C105.637 28.9748 103.437 27.3602 103.32 24.716H106.924C107.064 25.9094 107.86 26.4944 109.124 26.4944C110.27 26.4944 110.996 26.0732 110.996 25.301C110.996 24.2246 109.545 24.1076 107.954 23.8268C105.871 23.4758 103.648 22.9142 103.648 20.1062C103.648 17.579 105.988 16.2686 108.819 16.2686C112.212 16.2686 114.038 17.7428 114.225 20.1062H110.715C110.574 19.0298 109.849 18.7022 108.796 18.7022C107.86 18.7022 107.135 19.0532 107.135 19.802C107.135 20.6444 108.492 20.7614 110.013 21.0422C112.119 21.3932 114.599 21.9314 114.599 24.9968C114.599 27.6176 112.283 28.9748 109.147 28.9748Z" fill="#989898"/>
<path d="M119.703 28.6004V11.8694H132.386V15.2858H123.845V18.281H131.169V21.5102H123.845V25.0904H132.526V28.6004H119.703Z" fill="#989898"/>
<path d="M134.164 28.6004V16.6196H138.054L137.838 18.2576H137.908C138.797 16.9706 139.944 16.2686 141.605 16.2686C144.226 16.2686 145.77 18.1406 145.77 20.8082V28.6004H141.956V21.5804C141.956 20.3168 141.324 19.451 140.084 19.451C138.821 19.451 137.978 20.504 137.978 21.9782V28.6004H134.164Z" fill="#989898"/>
<path d="M153.361 28.9514C149.406 28.9514 146.973 26.2136 146.973 22.5866C146.973 19.0064 149.476 16.2686 153.127 16.2686C154.835 16.2686 156.192 16.8302 157.222 17.7662C158.649 19.0766 159.351 21.1592 159.328 23.5928H150.717C150.951 25.2074 151.84 26.2136 153.408 26.2136C154.414 26.2136 155.069 25.769 155.397 25.0202H159.117C158.86 26.0966 158.158 27.1262 157.105 27.8516C156.099 28.5536 154.882 28.9514 153.361 28.9514ZM150.74 21.323H155.467C155.326 19.8956 154.437 18.983 153.197 18.983C151.746 18.983 150.997 19.8956 150.74 21.323Z" fill="#989898"/>
<path d="M160.602 28.6004V16.6196H164.468L164.252 18.4916H164.322C165.165 17.0642 166.147 16.4324 167.598 16.4324C167.949 16.4324 168.183 16.4558 168.347 16.526V19.802H168.253C165.913 19.4744 164.416 20.621 164.416 23.2184V28.6004H160.602Z" fill="#989898"/>
<path d="M174.9 32.7424C171.601 32.7424 169.425 31.3852 169.05 28.8814H172.748C172.958 29.5132 173.59 30.0514 174.854 30.0514C176.468 30.0514 177.147 29.209 177.147 27.7582V26.5648H177.053C176.351 27.3604 175.439 27.9454 173.988 27.9454C171.297 27.9454 168.793 25.933 168.793 22.2592C168.793 18.7492 170.852 16.2688 173.824 16.2688C175.415 16.2688 176.492 16.9006 177.194 17.9068H177.24L177.026 16.6198H180.891V27.4306C180.891 29.2324 180.259 30.5428 179.3 31.4086C178.247 32.3446 176.679 32.7424 174.9 32.7424ZM174.877 25.114C176.538 25.114 177.311 23.8036 177.311 22.1188C177.311 20.5042 176.468 19.147 174.877 19.147C173.45 19.147 172.514 20.317 172.514 22.1422C172.514 23.944 173.45 25.114 174.877 25.114Z" fill="#989898"/>
<path d="M183.123 32.555V29.5832H184.433C185.556 29.5832 186.001 29.1386 186.001 28.3196C186.001 27.8048 185.767 27.1028 185.276 25.8392L181.742 16.6196H185.767L187.382 21.7208C187.756 22.8908 188.13 24.482 188.13 24.482H188.177C188.177 24.482 188.505 22.8908 188.879 21.7208L190.447 16.6196H194.261L190.119 28.7642C189.16 31.5722 188.013 32.555 185.603 32.555H183.123Z" fill="#989898"/>
<path d="M100.307 14.9582C99.1104 14.9582 98.1406 13.9885 98.1406 12.7924C98.1406 11.5962 99.1104 10.6265 100.307 10.6265C101.503 10.6265 102.474 11.5962 102.474 12.7924C102.474 13.9885 101.503 14.9582 100.307 14.9582Z" fill="#989898"/>
</svg>
