<svg width="36" height="37" viewBox="0 0 36 37" fill="none" xmlns="http://www.w3.org/2000/svg">
<path fill-rule="evenodd" clip-rule="evenodd" d="M4 11.7393C4 10.6347 4.89543 9.73926 6 9.73926H13H21C22.1046 9.73926 23 10.6347 23 11.7393V18.7393H15C13.8954 18.7393 13 19.6347 13 20.7393V25.7393C13 26.8438 12.1046 27.7393 11 27.7393H6C4.89543 27.7393 4 26.8438 4 25.7393V18.7393V11.7393ZM23 18.7393V25.7393C23 26.8438 23.8954 27.7393 25 27.7393H30C31.1046 27.7393 32 26.8438 32 25.7393V20.7393C32 19.6347 31.1046 18.7393 30 18.7393H23Z" fill="white"/>
</svg>
