<svg width="148" height="40" viewBox="0 0 148 40" fill="none" xmlns="http://www.w3.org/2000/svg">
<g style="mix-blend-mode:exclusion">
<path d="M17.7005 29.7383H0.13409V1.45409H17.7005V6.0198H5.08673V13.294H16.3849V17.6662H5.08673V25.1726H17.7005V29.7383ZM25.9885 29.7383H21.268V10.6242H25.6402L26.0272 13.1005C27.2266 11.1659 29.5482 10.0438 32.1406 10.0438C36.9384 10.0438 39.4148 13.0231 39.4148 17.9758V29.7383H34.6943V19.0979C34.6943 15.8864 33.1079 14.3387 30.6703 14.3387C27.7683 14.3387 25.9885 16.3507 25.9885 19.4461V29.7383ZM49.4476 29.7383H44.7271V14.5708H41.0513V10.6242H44.7271V4.66556H49.4476V10.6242H53.162V14.5708H49.4476V29.7383ZM66.9858 10.5468V14.9191H65.2446C61.8397 14.9191 59.7116 16.7376 59.7116 20.4521V29.7383H54.9911V10.6629H59.4408L59.7116 13.4487C60.5241 11.5528 62.3427 10.276 64.8964 10.276C65.5542 10.276 66.2119 10.3534 66.9858 10.5468ZM67.311 20.1425C67.311 14.1839 71.6059 10.0825 77.5258 10.0825C83.4458 10.0825 87.7406 14.1839 87.7406 20.1425C87.7406 26.1012 83.4458 30.2026 77.5258 30.2026C71.6059 30.2026 67.311 26.1012 67.311 20.1425ZM72.0315 20.1425C72.0315 23.6249 74.2756 25.9851 77.5258 25.9851C80.776 25.9851 83.0201 23.6249 83.0201 20.1425C83.0201 16.6602 80.776 14.3 77.5258 14.3C74.2756 14.3 72.0315 16.6602 72.0315 20.1425ZM90.3768 38.5989V10.6242H94.7491L95.0586 13.5261C96.2194 11.3207 98.7344 10.0438 101.636 10.0438C107.015 10.0438 110.574 13.9518 110.574 19.9491C110.574 25.9077 107.324 30.2413 101.636 30.2413C98.7731 30.2413 96.2968 29.1192 95.0973 27.1846V38.5989H90.3768ZM95.136 20.1812C95.136 23.6249 97.2641 25.9851 100.514 25.9851C103.842 25.9851 105.815 23.5862 105.815 20.1812C105.815 16.7763 103.842 14.3387 100.514 14.3387C97.2641 14.3387 95.136 16.7376 95.136 20.1812ZM110.846 38.5989V34.6522H113.67C115.527 34.6522 116.688 34.2266 117.501 31.9824L118.042 30.5508L110.343 10.6242H115.334L120.248 24.5535L125.433 10.6242H130.308L120.944 33.9945C119.513 37.5542 117.501 39.0245 114.367 39.0245C113.051 39.0245 111.89 38.8697 110.846 38.5989ZM139.274 17.3567C134.554 17.3567 130.994 13.797 130.994 9.15389C130.994 4.51079 134.592 0.951082 139.274 0.951082C143.956 0.951082 147.477 4.4721 147.477 9.15389C147.477 13.8357 143.956 17.3567 139.274 17.3567ZM139.274 15.8864C143.105 15.8864 145.929 13.0231 145.929 9.15389C145.929 5.28464 143.105 2.4214 139.274 2.4214C135.405 2.4214 132.58 5.28464 132.58 9.15389C132.58 13.0231 135.405 15.8864 139.274 15.8864ZM137.533 13.6422H135.946V4.39471H139.661C141.712 4.39471 143.066 5.43941 143.066 7.21926C143.066 8.41873 142.408 9.46342 141.209 9.92774L143.221 13.6422H141.479L139.738 10.3147H137.533V13.6422ZM141.402 7.33534C141.402 6.36803 140.783 5.90372 139.622 5.90372H137.533V8.88304H139.622C140.744 8.88304 141.402 8.30265 141.402 7.33534Z" fill="#FBFBFB"/>
</g>
</svg>
