<svg width="18" height="18" viewBox="0 0 18 18" fill="none" xmlns="http://www.w3.org/2000/svg">
<path fill-rule="evenodd" clip-rule="evenodd" d="M8.91734 0.407227C4.11324 0.407227 0.248291 4.27218 0.248291 9.07628C0.248291 12.9051 2.74064 16.156 6.17214 17.3119C6.60559 17.3841 6.75008 17.1313 6.75008 16.8784C6.75008 16.6617 6.75008 16.1199 6.75008 15.3975C4.32997 15.9393 3.82427 14.2416 3.82427 14.2416C3.42694 13.2302 2.84901 12.9774 2.84901 12.9774C2.05434 12.4355 2.92125 12.4355 2.92125 12.4355C3.78815 12.5078 4.25773 13.3386 4.25773 13.3386C5.01627 14.675 6.2805 14.2777 6.7862 14.061C6.85844 13.483 7.07517 13.1218 7.32801 12.9051C5.4136 12.6884 3.39082 11.9298 3.39082 8.6067C3.39082 7.66756 3.71591 6.87289 4.29385 6.29496C4.22161 6.07823 3.89652 5.21133 4.36609 3.98321C4.36609 3.98321 5.08851 3.76648 6.75008 4.88624C7.43638 4.70563 8.19492 4.59727 8.91734 4.59727C9.63976 4.59727 10.3983 4.70563 11.0846 4.88624C12.7462 3.76648 13.4686 3.98321 13.4686 3.98321C13.9382 5.1752 13.6492 6.04211 13.5408 6.29496C14.0826 6.90901 14.4439 7.66756 14.4439 8.6067C14.4439 11.9298 12.4211 12.6523 10.4705 12.869C10.7956 13.1218 11.0485 13.6637 11.0485 14.4583C11.0485 15.6142 11.0485 16.5533 11.0485 16.8423C11.0485 17.059 11.193 17.348 11.6625 17.2758C15.094 16.156 17.5864 12.9051 17.5864 9.07628C17.5864 4.27218 13.7214 0.407227 8.91734 0.407227Z" fill="#C9D4D8"/>
</svg>
