<svg width="149" height="40" viewBox="0 0 149 40" fill="none" xmlns="http://www.w3.org/2000/svg">
<g clip-path="url(#clip0_139_300)">
<path fill-rule="evenodd" clip-rule="evenodd" d="M13.315 23.4563L17.0761 27.2173C19.3649 29.5061 23.0757 29.5061 25.3646 27.2173C26.1194 26.4624 26.6253 25.553 26.8822 24.5908L29.5088 27.2173C31.7976 29.5061 35.5084 29.5061 37.7972 27.2173C40.086 24.9285 40.086 21.2176 37.7972 18.9289L29.5088 10.6404C27.22 8.35163 23.5091 8.35163 21.2203 10.6404C20.4654 11.3953 19.9596 12.3048 19.7027 13.267L17.0761 10.6404C14.7873 8.35163 11.0765 8.35163 8.78763 10.6405L1.96693 17.4611C-0.655643 20.0837 -0.655643 24.3357 1.96693 26.9583C4.5895 29.5809 8.84155 29.5809 11.4641 26.9583C12.4569 25.9656 13.0739 24.7392 13.315 23.4563ZM15.004 12.7125C13.8596 11.5681 12.0041 11.5681 10.8597 12.7125C9.71587 13.8565 9.71538 15.7107 10.8583 16.8553L19.1482 25.1452C20.2926 26.2896 22.1481 26.2896 23.2924 25.1452C24.4362 24.0014 24.4368 22.1474 23.2942 21.0028L15.004 12.7125ZM9.39202 19.5332L6.71552 16.8567L4.03904 19.5332C2.56087 21.0114 2.56087 23.408 4.03904 24.8862C5.51722 26.3644 7.91383 26.3644 9.39202 24.8862C10.8702 23.408 10.8702 21.0114 9.39202 19.5332ZM23.29 16.8543C22.1481 15.7097 22.1488 13.8561 23.2924 12.7125C24.4368 11.5681 26.2922 11.5681 27.4367 12.7125L35.7251 21.001C36.8695 22.1454 36.8695 24.0008 35.7251 25.1452C34.5807 26.2896 32.7253 26.2896 31.5809 25.1452L23.29 16.8543Z" fill="#989898"/>
<path d="M49.8457 27.1655H46.0977V9.49951H49.8457L55.0977 21.031L60.3737 9.49951H64.1695V27.1655H60.4214V23.4652C60.4214 19.6455 60.4214 18.81 60.6124 17.497L56.8643 25.5191H53.3312L49.607 17.497C49.8218 18.81 49.8457 20.2901 49.8457 22.2238V27.1655Z" fill="#989898"/>
<path d="M71.0007 27.4762C68.4701 27.4762 66.8945 25.996 66.8945 23.6565C66.8945 21.4602 68.4463 20.0994 71.311 19.8846L74.6532 19.622V19.431C74.6532 18.2612 73.937 17.6405 72.624 17.6405C71.0723 17.6405 70.2367 18.2373 70.2367 19.3116H67.181C67.181 16.614 69.4012 14.8474 72.815 14.8474C76.2766 14.8474 78.2342 16.7811 78.2342 20.1949V27.1658H74.9875L74.7487 25.5902C74.3668 26.6884 72.7911 27.4762 71.0007 27.4762ZM72.2898 24.7547C73.6983 24.7547 74.6771 24.0623 74.6771 22.7016V22.057L72.815 22.2241C71.2155 22.3674 70.6426 22.7255 70.6426 23.4894C70.6426 24.3488 71.1678 24.7547 72.2898 24.7547Z" fill="#989898"/>
<path d="M80.2743 20.9827C80.2743 17.354 82.6377 14.8235 86.0038 14.8235C87.6272 14.8235 88.9163 15.4442 89.5609 16.423L89.7519 15.2293H93.2134V26.4018C93.2134 30.6751 90.7545 33.2534 86.6723 33.2534C83.0197 33.2534 80.5608 31.1764 80.2266 27.7865H83.9507C84.0224 29.1233 85.025 29.9112 86.6484 29.9112C88.415 29.9112 89.537 28.8607 89.537 27.1658V25.614C88.8208 26.4735 87.4839 27.0225 85.9322 27.0225C82.59 27.0225 80.2743 24.5636 80.2743 20.9827ZM83.9746 20.8872C83.9746 22.606 85.1205 23.8236 86.7439 23.8236C88.415 23.8236 89.537 22.6538 89.537 20.8872C89.537 19.1445 88.415 18.0224 86.72 18.0224C85.0966 18.0224 83.9746 19.1922 83.9746 20.8872Z" fill="#989898"/>
<path d="M99.6569 27.1658H95.9805V15.2294H99.442L99.6808 16.4707C100.421 15.4442 101.782 14.8474 103.333 14.8474C106.174 14.8474 107.821 16.6617 107.821 19.7891V27.1658H104.145V20.6724C104.145 19.1684 103.309 18.1896 102.044 18.1896C100.588 18.1896 99.6569 19.1445 99.6569 20.6246V27.1658Z" fill="#989898"/>
<path d="M109.812 21.1735C109.812 17.4016 112.582 14.8711 116.401 14.8711C120.197 14.8711 122.966 17.4016 122.966 21.1735C122.966 24.9454 120.197 27.4521 116.401 27.4521C112.582 27.4521 109.812 24.9454 109.812 21.1735ZM113.513 21.1497C113.513 22.964 114.683 24.1576 116.401 24.1576C118.096 24.1576 119.266 22.964 119.266 21.1497C119.266 19.3592 118.096 18.1655 116.401 18.1655C114.683 18.1655 113.513 19.3592 113.513 21.1497Z" fill="#989898"/>
<path d="M128.774 27.1657H125.098V9.16553H128.774V27.1657Z" fill="#989898"/>
<path d="M133.347 13.367C132.177 13.367 131.246 12.4359 131.246 11.2662C131.246 10.0964 132.177 9.18921 133.347 9.18921C134.493 9.18921 135.424 10.0964 135.424 11.2662C135.424 12.4359 134.493 13.367 133.347 13.367ZM131.533 27.1655V15.2291H135.209V27.1655H131.533Z" fill="#989898"/>
<path d="M141.571 27.4762C139.04 27.4762 137.465 25.996 137.465 23.6565C137.465 21.4602 139.017 20.0994 141.881 19.8846L145.224 19.622V19.431C145.224 18.2612 144.507 17.6405 143.194 17.6405C141.643 17.6405 140.807 18.2373 140.807 19.3116H137.751C137.751 16.614 139.971 14.8474 143.385 14.8474C146.847 14.8474 148.804 16.7811 148.804 20.1949V27.1658H145.558L145.319 25.5902C144.937 26.6884 143.361 27.4762 141.571 27.4762ZM142.86 24.7547C144.269 24.7547 145.247 24.0623 145.247 22.7016V22.057L143.385 22.2241C141.786 22.3674 141.213 22.7255 141.213 23.4894C141.213 24.3488 141.738 24.7547 142.86 24.7547Z" fill="#989898"/>
</g>
<defs>
<clipPath id="clip0_139_300">
<rect width="149" height="40" fill="white"/>
</clipPath>
</defs>
</svg>
