<svg width="86" height="23" viewBox="0 0 86 23" fill="none" xmlns="http://www.w3.org/2000/svg">
<g opacity="0.8" clip-path="url(#clip0_268_35)">
<path d="M21.8044 8.39824C22.4417 9.03561 22.4417 10.0691 21.8044 10.7064L10.2243 22.2867C9.58689 22.924 8.55344 22.924 7.91607 22.2867L0.628679 14.9992C-0.00871347 14.3617 -0.00871347 13.3284 0.628679 12.691L12.2088 1.11084C12.8462 0.47347 13.8796 0.47347 14.517 1.11084L21.8044 8.39824Z" fill="#C0C0C0"/>
<path d="M24.5243 10.7064C25.1617 10.0691 25.1617 9.03561 24.5243 8.39824L19.1659 3.03983L21.095 1.11084C21.7323 0.47347 22.7658 0.47347 23.4031 1.11084L30.6904 8.39824C31.3278 9.03561 31.3278 10.0691 30.6904 10.7064L19.1104 22.2867C18.473 22.924 17.4396 22.924 16.802 22.2867L14.8731 20.3575L24.5243 10.7064Z" fill="#C0C0C0"/>
<path d="M43.4698 12.5128C44.0849 12.6276 44.5906 12.9352 44.9869 13.4356C45.383 13.9361 45.5812 14.5095 45.5812 15.1562C45.5812 15.7399 45.4352 16.2559 45.1433 16.7045C44.8617 17.1424 44.4499 17.4863 43.9078 17.7365C43.3657 17.9868 42.7242 18.1119 41.9841 18.1119H37.2766V7.19531H41.7806C42.521 7.19531 43.157 7.31525 43.6888 7.55506C44.2309 7.79487 44.6376 8.1285 44.9086 8.55603C45.1901 8.9835 45.331 9.46832 45.331 10.0105C45.331 10.6465 45.1588 11.1783 44.8147 11.6058C44.4812 12.0332 44.0329 12.3356 43.4698 12.5128ZM39.466 11.6996H41.4678C41.9893 11.6996 42.3907 11.5849 42.6723 11.3555C42.9536 11.1157 43.0945 10.7768 43.0945 10.3389C43.0945 9.90106 42.9536 9.56215 42.6723 9.32234C42.3907 9.08253 41.9893 8.96266 41.4678 8.96266H39.466V11.6996ZM41.6712 16.3291C42.2031 16.3291 42.6149 16.2039 42.9067 15.9537C43.2093 15.7034 43.3603 15.349 43.3603 14.8901C43.3603 14.4208 43.2039 14.0561 42.891 13.7954C42.5785 13.5242 42.156 13.3887 41.6242 13.3887H39.466V16.3291H41.6712Z" fill="#C0C0C0"/>
<path d="M50.548 18.2527C49.714 18.2527 48.9632 18.0702 48.296 17.7052C47.6287 17.3298 47.1021 16.8034 46.7163 16.1255C46.341 15.4479 46.1533 14.6659 46.1533 13.7797C46.1533 12.8934 46.3462 12.1114 46.7319 11.4337C47.1282 10.756 47.6652 10.2346 48.3428 9.86967C49.0206 9.49436 49.7766 9.30664 50.6106 9.30664C51.4446 9.30664 52.2006 9.49436 52.8784 9.86967C53.556 10.2346 54.0878 10.756 54.4735 11.4337C54.8698 12.1114 55.0678 12.8934 55.0678 13.7797C55.0678 14.6659 54.8647 15.4479 54.458 16.1255C54.0617 16.8034 53.5195 17.3298 52.8314 17.7052C52.1538 18.0702 51.3927 18.2527 50.548 18.2527ZM50.548 16.3445C50.9444 16.3445 51.3143 16.2507 51.6584 16.063C52.0128 15.865 52.2944 15.5731 52.503 15.1873C52.7116 14.8013 52.8158 14.3321 52.8158 13.7797C52.8158 12.9559 52.5968 12.3251 52.1589 11.8872C51.7316 11.4389 51.2049 11.2147 50.5793 11.2147C49.9537 11.2147 49.4273 11.4389 48.9997 11.8872C48.5827 12.3251 48.374 12.9559 48.374 13.7797C48.374 14.6033 48.5775 15.2393 48.9842 15.6876C49.4012 16.1255 49.9224 16.3445 50.548 16.3445Z" fill="#C0C0C0"/>
<path d="M58.2374 10.7924C58.519 10.3337 58.8841 9.97398 59.3323 9.71327C59.7912 9.45262 60.3124 9.32227 60.8964 9.32227V11.6214H60.3176C59.6293 11.6214 59.1082 11.783 58.7537 12.1062C58.4097 12.4294 58.2374 12.9925 58.2374 13.7953V18.1119H56.048V9.44741H58.2374V10.7924Z" fill="#C0C0C0"/>
<path d="M61.1829 13.749C61.1829 12.8732 61.3549 12.0964 61.6989 11.4187C62.0534 10.7409 62.533 10.2197 63.1379 9.8547C63.7426 9.48975 64.4151 9.3073 65.1552 9.3073C65.7183 9.3073 66.2552 9.43245 66.7664 9.68268C67.2772 9.92248 67.6836 10.2457 67.986 10.6523V6.53906H70.2068V18.1125H67.986V16.8302C67.7154 17.2575 67.3346 17.6016 66.8444 17.8622C66.3543 18.1231 65.786 18.2534 65.1397 18.2534C64.4099 18.2534 63.7426 18.0657 63.1379 17.6903C62.533 17.315 62.0534 16.7883 61.6989 16.1107C61.3549 15.4225 61.1829 14.6353 61.1829 13.749ZM68.0022 13.7803C68.0022 13.2486 67.8974 12.795 67.689 12.4197C67.4805 12.0339 67.1989 11.7419 66.8444 11.5438C66.49 11.3353 66.1095 11.231 65.7028 11.231C65.2961 11.231 64.9208 11.3301 64.5766 11.5282C64.2325 11.7263 63.951 12.0182 63.732 12.404C63.5236 12.7794 63.4192 13.2277 63.4192 13.749C63.4192 14.2705 63.5236 14.7291 63.732 15.1254C63.951 15.5111 64.2325 15.8082 64.5766 16.0169C64.9311 16.2252 65.3065 16.3297 65.7028 16.3297C66.1095 16.3297 66.49 16.2306 66.8444 16.0324C67.1989 15.824 67.4805 15.5318 67.689 15.1567C67.8974 14.7707 68.0022 14.3121 68.0022 13.7803Z" fill="#C0C0C0"/>
<path d="M79.7742 13.5919C79.7742 13.9047 79.7532 14.1863 79.7119 14.4366H73.3775C73.4302 15.0622 73.6487 15.5522 74.0343 15.9066C74.4206 16.2613 74.8948 16.4383 75.4576 16.4383C76.2714 16.4383 76.8498 16.0891 77.1941 15.3905H79.5557C79.3054 16.2246 78.8258 16.9127 78.1168 17.4549C77.4079 17.9867 76.5366 18.2527 75.5043 18.2527C74.6709 18.2527 73.92 18.0702 73.2523 17.7052C72.5955 17.3298 72.0793 16.8034 71.7046 16.1255C71.3393 15.4479 71.1566 14.6659 71.1566 13.7797C71.1566 12.883 71.3393 12.0957 71.7046 11.418C72.0692 10.7403 72.5799 10.219 73.2368 9.85404C73.8936 9.48908 74.6499 9.30664 75.5043 9.30664C76.3282 9.30664 77.0636 9.48394 77.7096 9.83841C78.3671 10.1929 78.8724 10.6986 79.2269 11.3555C79.5922 12.0019 79.7742 12.7474 79.7742 13.5919ZM77.5066 12.9663C77.4958 12.4033 77.2929 11.955 76.8965 11.6213C76.5007 11.2773 76.0157 11.1052 75.4421 11.1052C74.9002 11.1052 74.4416 11.2721 74.0661 11.6057C73.7008 11.9289 73.4769 12.3825 73.393 12.9663H77.5066Z" fill="#C0C0C0"/>
<path d="M82.9366 10.7924C83.218 10.3337 83.5833 9.97398 84.0312 9.71327C84.4905 9.45262 85.0114 9.32227 85.5958 9.32227V11.6214H85.0168C84.3288 11.6214 83.8072 11.783 83.4528 12.1062C83.1084 12.4294 82.9366 12.9925 82.9366 13.7953V18.1119H80.7469V9.44741H82.9366V10.7924Z" fill="#C0C0C0"/>
</g>
<defs>
<clipPath id="clip0_268_35">
<rect width="85.9118" height="23" fill="white"/>
</clipPath>
</defs>
</svg>
