<svg width="172" height="40" viewBox="0 0 172 40" fill="none" xmlns="http://www.w3.org/2000/svg">
<path d="M39.3154 9.00952H25.3282C24.3329 9.00952 23.3916 9.46197 22.7699 10.2391L21.461 11.8752C20.8393 12.6523 19.898 13.1048 18.9027 13.1048H6.55353L3.27734 17.2H17.2646C18.2599 17.2 19.2012 16.7476 19.8229 15.9705L21.1318 14.3343C21.7535 13.5572 22.6948 13.1048 23.6901 13.1048H36.0393L39.3154 9.00952Z" fill="#989898"/>
<path d="M37.6748 15.562H23.6875C22.6923 15.562 21.751 16.0145 21.1292 16.7916L19.8204 18.4277C19.1987 19.2048 18.2573 19.6572 17.2621 19.6572H4.91291L1.63672 23.7525H15.624C16.6192 23.7525 17.5606 23.3 18.1823 22.5229L19.4911 20.8868C20.1129 20.1097 21.0542 19.6572 22.0494 19.6572H34.3986L37.6748 15.562Z" fill="#989898"/>
<path d="M36.0381 22.1145H22.0508C21.0556 22.1145 20.1143 22.5669 19.4925 23.344L18.1837 24.9802C17.5619 25.7573 16.6206 26.2097 15.6254 26.2097H3.27619L0 30.305H13.9873C14.9825 30.305 15.9238 29.8525 16.5456 29.0754L17.8544 27.4393C18.4762 26.6622 19.4175 26.2097 20.4127 26.2097H32.7619L36.0381 22.1145Z" fill="#989898"/>
<path d="M54.3815 11.3274C57.6323 11.3274 60.0427 13.0081 60.0427 16.0378C60.0427 18.028 58.9149 19.3328 57.2563 19.8193C58.8928 20.0404 59.6446 20.8587 59.7994 22.5394L60.1754 27.0286H56.7698L56.4823 23.0701C56.3717 21.7432 55.642 21.301 53.8065 21.301H50.8874V27.0286H47.5039V11.3274H54.3815ZM50.8874 18.4482H53.9171C55.6199 18.4482 56.5708 17.6963 56.5708 16.3252C56.5708 14.932 55.6199 14.1802 53.9171 14.1802H50.8874V18.4482Z" fill="#989898"/>
<path d="M60.8555 21.1684C60.8555 17.4532 63.2438 15.0427 66.8706 15.0427C70.0992 15.0427 72.6203 17.2763 72.5982 21.4117V22.0309H64.3495C64.438 23.7779 65.3668 24.8173 66.8706 24.8173C67.8436 24.8173 68.706 24.2644 69.082 23.3577L72.4434 23.601C71.7357 25.8787 69.5464 27.2941 66.8706 27.2941C63.2438 27.2941 60.8555 24.8836 60.8555 21.1684ZM64.3716 20.0185H69.2147C69.0378 18.2493 68.0205 17.5195 66.8706 17.5195C65.4552 17.5195 64.5486 18.4705 64.3716 20.0185Z" fill="#989898"/>
<path d="M74.8929 15.2416C74.8929 12.6764 76.1534 11.3274 78.9619 11.3274H81.3503V13.8263H79.4705C78.7408 13.8263 78.2321 14.3571 78.2321 15.2416V15.7945H81.1733V18.2934H78.2321V27.0286H74.8929V18.2934H73.168V15.7945H74.8929V15.2416Z" fill="#989898"/>
<path d="M82.6602 15.3081H85.8446L85.911 17.6522C86.3754 16.0821 87.2599 15.3081 88.7416 15.3081H89.8031V17.807H88.6974C86.7734 17.807 86.0215 18.6916 86.0215 20.505V27.0287H82.6602V15.3081Z" fill="#989898"/>
<path d="M93.3926 23.8221C93.3926 24.5519 94.0118 25.2374 95.2059 25.1932C96.6655 25.149 97.7048 23.999 97.6827 22.0972V21.8097L95.7367 22.1857C94.4098 22.451 93.3926 22.6058 93.3926 23.8221ZM89.9648 23.9106C89.9648 21.7213 91.5571 20.9251 94.1223 20.4386L97.6385 19.7531V19.7089C97.6385 17.9839 96.9087 17.2321 95.604 17.2321C94.4762 17.2321 93.7464 17.9176 93.5252 19.1118L90.1639 18.9349C90.6062 16.4581 92.5743 15.0427 95.604 15.0427C99.0538 15.0427 101 16.7013 101 20.1511V27.0287H98.0144L97.9039 25.3922C97.4174 26.4316 96.2011 27.2719 94.1002 27.3162C91.8003 27.3162 89.9648 25.9893 89.9648 23.9106Z" fill="#989898"/>
<path d="M110.444 19.7973C110.245 18.382 109.316 17.608 108.144 17.608C106.485 17.608 105.557 18.9127 105.557 21.1684C105.557 23.4241 106.485 24.7288 108.144 24.7288C109.382 24.7288 110.289 23.9548 110.488 22.4289L113.938 22.5616C113.628 25.4807 111.262 27.2941 108.144 27.2941C104.517 27.2941 102.129 24.8836 102.129 21.1684C102.129 17.4532 104.517 15.0427 108.144 15.0427C111.174 15.0427 113.562 16.7898 113.872 19.6425L110.444 19.7973Z" fill="#989898"/>
<path d="M115.886 12.6543H119.248V15.308H122.321V17.7848H119.248V23.1807C119.248 24.0653 119.69 24.5297 120.53 24.5297H122.344V27.0286H119.823C117.257 27.0286 115.886 25.7681 115.886 23.1807V17.7848H113.984V15.308H115.886V12.6543Z" fill="#989898"/>
<path d="M123.568 15.308H126.929V27.0286H123.568V15.308ZM123.523 13.7821V11.3274H126.973V13.7821H123.523Z" fill="#989898"/>
<path d="M134.277 27.2941C130.65 27.2941 128.262 24.8836 128.262 21.1684C128.262 17.4532 130.65 15.0427 134.277 15.0427C137.904 15.0427 140.292 17.4532 140.292 21.1684C140.292 24.8836 137.904 27.2941 134.277 27.2941ZM131.689 21.1684C131.689 23.4241 132.618 24.7288 134.277 24.7288C135.935 24.7288 136.864 23.4241 136.864 21.1684C136.864 18.9127 135.935 17.608 134.277 17.608C132.618 17.608 131.689 18.9127 131.689 21.1684Z" fill="#989898"/>
<path d="M141.516 15.3081H144.523L144.612 17.1878C145.253 15.6398 146.558 15.0427 148.106 15.0427C150.671 15.0427 152.153 16.7677 152.153 19.4877V27.0287H148.813V20.5934C148.813 18.7358 148.393 17.6965 147.022 17.6965C145.607 17.6965 144.877 18.7358 144.877 20.5934V27.0287H141.516V15.3081Z" fill="#989898"/>
<path d="M156.893 23.8221C156.893 24.5519 157.512 25.2374 158.706 25.1932C160.165 25.149 161.205 23.999 161.183 22.0972V21.8097L159.237 22.1857C157.91 22.451 156.893 22.6058 156.893 23.8221ZM153.465 23.9106C153.465 21.7213 155.057 20.9251 157.622 20.4386L161.139 19.7531V19.7089C161.139 17.9839 160.409 17.2321 159.104 17.2321C157.976 17.2321 157.246 17.9176 157.025 19.1118L153.664 18.9349C154.106 16.4581 156.074 15.0427 159.104 15.0427C162.554 15.0427 164.5 16.7013 164.5 20.1511V27.0287H161.514L161.404 25.3922C160.917 26.4316 159.701 27.2719 157.6 27.3162C155.3 27.3162 153.465 25.9893 153.465 23.9106Z" fill="#989898"/>
<path d="M166.289 11.3274H169.65V23.623C169.65 24.1979 169.96 24.5296 170.535 24.5296H171.375V27.0286H169.562C167.616 27.0286 166.289 25.8565 166.289 23.7556V11.3274Z" fill="#989898"/>
</svg>
