<svg width="152" height="37" viewBox="0 0 152 37" fill="none" xmlns="http://www.w3.org/2000/svg">
<path d="M0 6.77214C0 4.69424 1.68448 3.00977 3.76238 3.00977H11.2871C13.365 3.00977 15.0495 4.69424 15.0495 6.77214V14.1608C15.0497 14.206 15.0497 14.2514 15.0497 14.2969C15.0497 16.3718 16.7294 18.0545 18.8032 18.0593H18.8119H26.3366C28.4145 18.0593 30.099 19.7438 30.099 21.8216V29.3464C30.099 31.4243 28.4145 33.1088 26.3366 33.1088H18.8119C16.734 33.1088 15.0495 31.4243 15.0495 29.3464V21.8216C15.0495 21.8112 15.0496 21.8008 15.0497 21.7903C15.0328 19.7269 13.3549 18.0593 11.2874 18.0593C11.2776 18.0593 11.2679 18.0593 11.2582 18.0593H3.76238C1.68448 18.0593 0 16.3748 0 14.2969V6.77214Z" fill="#989898"/>
<path fill-rule="evenodd" clip-rule="evenodd" d="M70.848 25.1025C69.7945 25.1025 68.8539 24.8466 68.0262 24.335C67.1985 23.8233 66.5438 23.1235 66.0622 22.2356C65.5806 21.3476 65.3398 20.3393 65.3398 19.2106C65.3398 18.0819 65.5806 17.0811 66.0622 16.2082C66.5438 15.3203 67.1985 14.628 68.0262 14.1314C68.8539 13.6197 69.7945 13.3639 70.848 13.3639C71.6907 13.3639 72.4282 13.5219 73.0602 13.8379C73.6923 14.154 74.204 14.5979 74.5953 15.1698V8.57812H77.4852V24.8316H74.9113L74.5953 23.2288C74.2341 23.7255 73.7525 24.1619 73.1505 24.5381C72.5636 24.9144 71.7961 25.1025 70.848 25.1025ZM71.4575 22.5742C72.3905 22.5742 73.1505 22.2656 73.7375 21.6486C74.3395 21.0165 74.6404 20.2114 74.6404 19.2332C74.6404 18.255 74.3395 17.4573 73.7375 16.8403C73.1505 16.2082 72.3905 15.8922 71.4575 15.8922C70.5395 15.8922 69.7795 16.2007 69.1775 16.8177C68.5755 17.4348 68.2745 18.2324 68.2745 19.2106C68.2745 20.1888 68.5755 20.994 69.1775 21.626C69.7795 22.2581 70.5395 22.5742 71.4575 22.5742Z" fill="#989898"/>
<path d="M41.1917 24.0867C42.3355 24.7639 43.705 25.1026 45.3002 25.1026C47.1965 25.1026 48.7466 24.6435 49.9505 23.7255C51.1696 22.8075 51.9296 21.5358 52.2305 19.9105H49.0476C48.8519 20.7231 48.4305 21.3627 47.7834 21.8293C47.1513 22.2808 46.3086 22.5065 45.2551 22.5065C43.7953 22.5065 42.6515 22.0174 41.8238 21.0392C40.9961 20.0459 40.5822 18.6839 40.5822 16.9532C40.5822 15.2226 40.9961 13.8606 41.8238 12.8673C42.6515 11.874 43.7953 11.3774 45.2551 11.3774C46.3086 11.3774 47.1513 11.6257 47.7834 12.1224C48.4305 12.6039 48.8519 13.2736 49.0476 14.1315H52.2305C51.9296 12.4309 51.1696 11.114 49.9505 10.181C48.7466 9.23285 47.1965 8.75879 45.3002 8.75879C43.705 8.75879 42.3355 9.10493 41.1917 9.79721C40.048 10.4895 39.1676 11.4526 38.5505 12.6867C37.9335 13.9208 37.625 15.3429 37.625 16.9532C37.625 18.5635 37.9335 19.9857 38.5505 21.2198C39.1676 22.4388 40.048 23.3944 41.1917 24.0867Z" fill="#989898"/>
<path fill-rule="evenodd" clip-rule="evenodd" d="M55.8031 24.3574C56.676 24.8541 57.6542 25.1024 58.7378 25.1024C59.8063 25.1024 60.777 24.8541 61.6498 24.3574C62.5227 23.8608 63.2075 23.176 63.7041 22.3032C64.2158 21.4153 64.4716 20.3919 64.4716 19.2331C64.4716 18.0743 64.2158 17.0584 63.7041 16.1856C63.2075 15.2976 62.5227 14.6054 61.6498 14.1087C60.792 13.6121 59.8289 13.3638 58.7603 13.3638C57.6768 13.3638 56.6986 13.6121 55.8257 14.1087C54.9679 14.6054 54.2831 15.2976 53.7714 16.1856C53.2597 17.0584 53.0039 18.0743 53.0039 19.2331C53.0039 20.3919 53.2522 21.4153 53.7489 22.3032C54.2605 23.176 54.9453 23.8608 55.8031 24.3574ZM60.7017 21.7614C60.1449 22.3182 59.4902 22.5966 58.7378 22.5966C57.9853 22.5966 57.3306 22.3182 56.7738 21.7614C56.232 21.1895 55.9611 20.3467 55.9611 19.2331C55.9611 18.1194 56.232 17.2842 56.7738 16.7273C57.3306 16.1555 57.9928 15.8695 58.7603 15.8695C59.4978 15.8695 60.1449 16.1555 60.7017 16.7273C61.2586 17.2842 61.537 18.1194 61.537 19.2331C61.537 20.3467 61.2586 21.1895 60.7017 21.7614Z" fill="#989898"/>
<path fill-rule="evenodd" clip-rule="evenodd" d="M81.5101 24.38C82.383 24.8616 83.3838 25.1024 84.5125 25.1024C85.4155 25.1024 86.2206 24.9368 86.928 24.6058C87.6503 24.2747 88.2523 23.8232 88.7339 23.2513C89.2305 22.6644 89.5842 22.0172 89.7949 21.3099H86.8602C86.6646 21.7313 86.3636 22.0774 85.9573 22.3483C85.566 22.6042 85.0769 22.7321 84.4899 22.7321C83.7074 22.7321 83.0377 22.4838 82.4808 21.9871C81.9391 21.4905 81.6381 20.8058 81.5779 19.9329H90.0884C90.1034 19.7372 90.1109 19.5491 90.1109 19.3685C90.126 19.1879 90.1335 19.0149 90.1335 18.8493C90.1335 17.8259 89.8927 16.9004 89.4111 16.0727C88.9446 15.2299 88.2899 14.5677 87.4472 14.0861C86.6044 13.6046 85.6337 13.3638 84.5351 13.3638C83.3612 13.3638 82.3379 13.6196 81.465 14.1313C80.6072 14.6279 79.93 15.3277 79.4333 16.2307C78.9517 17.1337 78.7109 18.1646 78.7109 19.3234C78.7109 20.4671 78.9593 21.4755 79.4559 22.3483C79.9525 23.2212 80.6373 23.8984 81.5101 24.38ZM82.6614 16.321C83.2032 15.9147 83.8278 15.7115 84.5351 15.7115C85.2725 15.7115 85.8896 15.9297 86.3862 16.3661C86.8828 16.8026 87.1537 17.3895 87.1989 18.1269H81.623C81.7735 17.3143 82.1197 16.7123 82.6614 16.321Z" fill="#989898"/>
<path d="M96.6944 25.1024C95.5506 25.1024 94.5423 24.8541 93.6694 24.3574C92.7966 23.8608 92.1043 23.1685 91.5926 22.2806C91.0952 21.3927 90.8477 20.3768 90.8477 19.2331C90.8477 18.0893 91.0952 17.0735 91.5926 16.1856C92.1043 15.2976 92.7966 14.6054 93.6694 14.1087C94.5423 13.6121 95.5506 13.3638 96.6944 13.3638C98.1241 13.3638 99.328 13.74 100.306 14.4925C101.284 15.2299 101.909 16.2533 102.18 17.5626H99.1324C98.9819 17.0208 98.6809 16.5994 98.2294 16.2984C97.793 15.9824 97.2738 15.8244 96.6718 15.8244C95.8742 15.8244 95.197 16.1254 94.6401 16.7273C94.0833 17.3293 93.8049 18.1646 93.8049 19.2331C93.8049 20.3016 94.0833 21.1368 94.6401 21.7388C95.197 22.3408 95.8742 22.6418 96.6718 22.6418C97.2738 22.6418 97.793 22.4913 98.2294 22.1903C98.6809 21.8893 98.9819 21.4604 99.1324 20.9036H102.18C101.909 22.1677 101.284 23.1836 100.306 23.9511C99.328 24.7186 98.1241 25.1024 96.6944 25.1024Z" fill="#989898"/>
<path d="M106.235 15.7341L105.964 13.6347H103.391V24.8315H106.28V19.7297C106.28 18.8719 106.416 18.2022 106.686 17.7206C106.972 17.239 107.364 16.9004 107.86 16.7048C108.357 16.5091 108.921 16.4113 109.553 16.4113H110.366V13.3638C109.418 13.3638 108.59 13.582 107.883 14.0184C107.191 14.4398 106.641 15.0117 106.235 15.7341Z" fill="#989898"/>
<path fill-rule="evenodd" clip-rule="evenodd" d="M114.847 25.1024C113.884 25.1024 113.094 24.9519 112.477 24.6509C111.86 24.3349 111.401 23.921 111.1 23.4093C110.799 22.8976 110.648 22.3333 110.648 21.7162C110.648 20.6778 111.055 19.8351 111.867 19.1879C112.68 18.5408 113.899 18.2172 115.524 18.2172H118.369V17.9463C118.369 17.1788 118.151 16.6145 117.714 16.2533C117.278 15.8921 116.736 15.7115 116.089 15.7115C115.502 15.7115 114.99 15.8545 114.554 16.1404C114.117 16.4113 113.846 16.8176 113.741 17.3594H110.919C110.995 16.5467 111.265 15.8394 111.732 15.2374C112.214 14.6355 112.831 14.1764 113.583 13.8604C114.336 13.5293 115.178 13.3638 116.111 13.3638C117.707 13.3638 118.963 13.7626 119.881 14.5602C120.799 15.3578 121.258 16.4865 121.258 17.9463V24.8315H118.798L118.527 23.0256C118.196 23.6275 117.729 24.1242 117.127 24.5155C116.54 24.9067 115.78 25.1024 114.847 25.1024ZM115.502 22.845C116.33 22.845 116.969 22.5741 117.421 22.0323C117.887 21.4905 118.181 20.8208 118.301 20.0232H115.841C115.073 20.0232 114.524 20.1661 114.193 20.4521C113.862 20.723 113.696 21.0616 113.696 21.4679C113.696 21.9044 113.862 22.243 114.193 22.4838C114.524 22.7246 114.96 22.845 115.502 22.845Z" fill="#989898"/>
<path d="M124.195 9.43596C123.518 10.0078 123.18 10.971 123.18 12.3255V13.6348H121.645V16.0502H123.18V24.8316H126.069V16.0502H130.524V20.9262C130.524 22.386 130.878 23.4019 131.585 23.9738C132.293 24.5456 133.233 24.8316 134.407 24.8316H136.371V22.371H134.972C134.4 22.371 133.993 22.2732 133.753 22.0775C133.527 21.8668 133.414 21.4906 133.414 20.9488V16.0502H136.439V13.6348H133.414V10.6324H130.863L130.524 13.6348H126.069V12.3255C126.069 11.8589 126.174 11.5278 126.385 11.3322C126.596 11.1365 126.949 11.0387 127.446 11.0387H128.236V8.57812H126.995C125.821 8.57812 124.888 8.86408 124.195 9.43596Z" fill="#989898"/>
<path d="M137.316 25.6895V28.4435H151.756V25.6895H137.316Z" fill="#989898"/>
</svg>
