<svg width="126" height="20" viewBox="0 0 126 20" fill="none" xmlns="http://www.w3.org/2000/svg">
<g opacity="0.8" clip-path="url(#clip0_268_4)">
<path d="M0.674576 19.299V0.248047H4.2548L13.4572 13.6654V0.248047H17.0375V19.299H13.4572L4.2548 5.90889V19.299H0.674576Z" fill="#C0C0C0"/>
<path d="M26.0918 19.6249C24.6932 19.6249 23.4532 19.3346 22.3718 18.7539C21.2902 18.1733 20.4418 17.3568 19.8263 16.3046C19.2108 15.2523 18.9032 14.0365 18.9032 12.6576C18.9032 11.2605 19.2015 10.0177 19.7985 8.92903C20.4136 7.84041 21.2528 6.99674 22.3158 6.398C23.3972 5.78112 24.6653 5.47266 26.1197 5.47266C27.4812 5.47266 28.6837 5.76296 29.7281 6.34357C30.7724 6.92418 31.5835 7.72249 32.1615 8.73856C32.7584 9.73641 33.0567 10.8523 33.0567 12.086C33.0567 12.2856 33.0474 12.4943 33.0285 12.712C33.0285 12.9297 33.0193 13.1564 33.0007 13.3925H22.4556C22.5302 14.4447 22.9031 15.2703 23.5745 15.8692C24.2643 16.4677 25.0942 16.7673 26.064 16.7673C26.7912 16.7673 27.3971 16.6129 27.8819 16.3046C28.3854 15.9779 28.7583 15.5606 29.0008 15.0526H32.6371C32.3759 15.9053 31.9378 16.6854 31.3223 17.3933C30.7257 18.0827 29.9799 18.6268 29.0848 19.026C28.2084 19.4253 27.2108 19.6249 26.0918 19.6249ZM26.1197 8.3031C25.2434 8.3031 24.4695 8.54803 23.7982 9.03795C23.1268 9.50964 22.6979 10.2354 22.5116 11.2152H29.4205C29.3645 10.3261 29.0288 9.61849 28.4135 9.09233C27.7981 8.56618 27.0335 8.3031 26.1197 8.3031Z" fill="#C0C0C0"/>
<path d="M32.3986 19.2978L37.4332 12.5483L32.3986 5.79883H36.2307L39.7549 10.5888L43.2512 5.79883H47.1112L42.0485 12.5483L47.1112 19.2978H43.2512L39.7549 14.5079L36.2307 19.2978H32.3986Z" fill="#C0C0C0"/>
<path d="M54.1755 19.2983C52.7208 19.2983 51.5555 18.9536 50.6788 18.2641C49.8025 17.5746 49.3644 16.3501 49.3644 14.59V8.71146H46.9869V5.79936H49.3644L49.784 2.17969H52.9446V5.79936H56.6928V8.71146H52.9446V14.6174C52.9446 15.2705 53.0845 15.7241 53.3641 15.978C53.6625 16.214 54.1659 16.3318 54.8745 16.3318H56.609V19.2983H54.1755Z" fill="#C0C0C0"/>
<path d="M58.3676 19.2982V5.79924H61.5285L61.8362 7.62269C62.2836 6.96952 62.8712 6.45244 63.5984 6.07142C64.3442 5.67225 65.2019 5.47266 66.1717 5.47266C68.3161 5.47266 69.8358 6.28007 70.731 7.89487C71.2345 7.15096 71.9056 6.56128 72.7448 6.12586C73.6026 5.6904 74.5349 5.47266 75.5418 5.47266C77.3508 5.47266 78.74 5.99883 79.71 7.05117C80.6792 8.10349 81.1638 9.64572 81.1638 11.6778V19.2982H77.5838V12.0044C77.5838 10.8433 77.3508 9.95418 76.8845 9.33733C76.4371 8.72041 75.7377 8.41195 74.7868 8.41195C73.817 8.41195 73.0338 8.75672 72.4372 9.4461C71.8592 10.1356 71.5702 11.0973 71.5702 12.331V19.2982H67.9897V12.0044C67.9897 10.8433 67.7567 9.95418 67.2906 9.33733C66.8243 8.72041 66.1064 8.41195 65.1366 8.41195C64.1857 8.41195 63.4118 8.75672 62.8152 9.4461C62.2372 10.1356 61.9482 11.0973 61.9482 12.331V19.2982H58.3676Z" fill="#C0C0C0"/>
<path d="M89.8223 19.6249C88.48 19.6249 87.2677 19.3253 86.1862 18.7267C85.1231 18.1279 84.2746 17.3023 83.6408 16.25C83.0254 15.1796 82.7177 13.9459 82.7177 12.5487C82.7177 11.1516 83.0346 9.92695 83.6685 8.87464C84.3031 7.80418 85.1515 6.96952 86.2138 6.37079C87.2954 5.77206 88.5077 5.47266 89.8508 5.47266C91.1746 5.47266 92.3677 5.77206 93.4308 6.37079C94.5123 6.96952 95.3608 7.80418 95.9762 8.87464C96.61 9.92695 96.9269 11.1516 96.9269 12.5487C96.9269 13.9459 96.61 15.1796 95.9762 16.25C95.3608 17.3023 94.5123 18.1279 93.4308 18.7267C92.3492 19.3253 91.1462 19.6249 89.8223 19.6249ZM89.8223 16.6038C90.7546 16.6038 91.5662 16.2681 92.2562 15.5969C92.9462 14.9075 93.2908 13.8913 93.2908 12.5487C93.2908 11.2061 92.9462 10.1991 92.2562 9.52779C91.5662 8.83833 90.7638 8.49356 89.8508 8.49356C88.8992 8.49356 88.0792 8.83833 87.3892 9.52779C86.7177 10.1991 86.3823 11.2061 86.3823 12.5487C86.3823 13.8913 86.7177 14.9075 87.3892 15.5969C88.0792 16.2681 88.89 16.6038 89.8223 16.6038Z" fill="#C0C0C0"/>
<path d="M101.795 19.2978L96.7038 5.79883H100.452L103.976 16.0049L107.501 5.79883H111.248L106.13 19.2978H101.795Z" fill="#C0C0C0"/>
<path d="M118.168 19.6249C116.769 19.6249 115.528 19.3346 114.448 18.7539C113.366 18.1733 112.518 17.3568 111.902 16.3046C111.287 15.2523 110.978 14.0365 110.978 12.6576C110.978 11.2605 111.278 10.0177 111.874 8.92903C112.489 7.84041 113.328 6.99674 114.392 6.398C115.473 5.78112 116.741 5.47266 118.195 5.47266C119.557 5.47266 120.759 5.76296 121.804 6.34357C122.848 6.92418 123.659 7.72249 124.237 8.73856C124.834 9.73641 125.132 10.8523 125.132 12.086C125.132 12.2856 125.123 12.4943 125.105 12.712C125.105 12.9297 125.095 13.1564 125.076 13.3925H114.532C114.605 14.4447 114.979 15.2703 115.65 15.8692C116.34 16.4677 117.17 16.7673 118.139 16.7673C118.867 16.7673 119.473 16.6129 119.958 16.3046C120.461 15.9779 120.834 15.5606 121.076 15.0526H124.712C124.452 15.9053 124.013 16.6854 123.398 17.3933C122.802 18.0827 122.055 18.6268 121.16 19.026C120.284 19.4253 119.286 19.6249 118.168 19.6249ZM118.195 8.3031C117.319 8.3031 116.545 8.54803 115.874 9.03795C115.202 9.50964 114.774 10.2354 114.587 11.2152H121.496C121.44 10.3261 121.105 9.61849 120.489 9.09233C119.874 8.56618 119.109 8.3031 118.195 8.3031Z" fill="#C0C0C0"/>
</g>
<defs>
<clipPath id="clip0_268_4">
<rect width="125.385" height="20" fill="white"/>
</clipPath>
</defs>
</svg>
